<svg width="26" height="27" viewBox="0 0 26 27" fill="none" xmlns="http://www.w3.org/2000/svg">
<g clip-path="url(#clip0_967_20)">
<path fill-rule="evenodd" clip-rule="evenodd" d="M0 0.614258H1.625V24.9893H26V26.6143H0V0.614258ZM16.25 6.30176C16.25 6.08627 16.3356 5.87961 16.488 5.72723C16.6403 5.57486 16.847 5.48926 17.0625 5.48926H23.5625C23.778 5.48926 23.9847 5.57486 24.137 5.72723C24.2894 5.87961 24.375 6.08627 24.375 6.30176V12.8018C24.375 13.0172 24.2894 13.2239 24.137 13.3763C23.9847 13.5287 23.778 13.6143 23.5625 13.6143C23.347 13.6143 23.1403 13.5287 22.988 13.3763C22.8356 13.2239 22.75 13.0172 22.75 12.8018V8.57676L16.8789 15.7544C16.807 15.8421 16.7176 15.9138 16.6163 15.9649C16.515 16.016 16.4042 16.0453 16.291 16.0509C16.1777 16.0566 16.0645 16.0385 15.9586 15.9978C15.8528 15.9571 15.7566 15.8946 15.6764 15.8145L11.4725 11.6106L5.5315 19.7795C5.40154 19.9448 5.21257 20.0532 5.00432 20.0821C4.79607 20.1109 4.58475 20.0579 4.41475 19.9342C4.24476 19.8105 4.12934 19.6257 4.09274 19.4187C4.05614 19.2117 4.10122 18.9985 4.2185 18.824L10.7185 9.88651C10.7875 9.79147 10.8763 9.71252 10.9787 9.65509C11.0812 9.59766 11.1948 9.56312 11.3119 9.55385C11.429 9.54459 11.5467 9.56081 11.6569 9.60141C11.7671 9.642 11.8672 9.70601 11.9503 9.78901L16.1899 14.0303L21.8481 7.11426H17.0625C16.847 7.11426 16.6403 7.02866 16.488 6.87628C16.3356 6.72391 16.25 6.51725 16.25 6.30176Z" fill="#3CC8C8"/>
</g>
<defs>
<clipPath id="clip0_967_20">
<rect width="26" height="26" fill="white" transform="translate(0 0.614258)"/>
</clipPath>
</defs>
</svg>
